HIERARCHY
ROOT Hips
{
	OFFSET 0.00 0.00 0.00
	CHANNELS 6 Xposition Yposition Zposition Xrotation Yrotation Zrotation
	JOINT LeftUpLeg
	{
		OFFSET 2.83210 0.00000 0.00000
		CHANNELS 3 Xrotation Yrotation Zrotation
		JOINT LeftLeg
		{
			OFFSET 0.00000 -16.27150 0.00000
			CHANNELS 3 Xrotation Yrotation Zrotation
			JOINT LeftFoot
			{
				OFFSET 0.00000 -14.95190 0.00000
				CHANNELS 3 Xrotation Yrotation Zrotation
				JOINT LeftToeBase
				{
					OFFSET 0.00000 -1.07991 4.03030
					CHANNELS 3 Xrotation Yrotation Zrotation
					End Site
					{
						OFFSET 0.00000 0.00000 2.95275
					}
				}
			}
		}
	}
	JOINT RightUpLeg
	{
		OFFSET -2.83210 0.00000 0.00000
		CHANNELS 3 Xrotation Yrotation Zrotation
		JOINT RightLeg
		{
			OFFSET 0.00000 -16.27150 0.00000
			CHANNELS 3 Xrotation Yrotation Zrotation
			JOINT RightFoot
			{
				OFFSET 0.00000 -14.95190 0.00000
				CHANNELS 3 Xrotation Yrotation Zrotation
				JOINT RightToeBase
				{
					OFFSET 0.00000 -1.07991 4.03030
					CHANNELS 3 Xrotation Yrotation Zrotation
					End Site
					{
						OFFSET 0.00000 0.00000 2.95275
					}
				}
			}
		}
	}
	JOINT Spine
	{
		OFFSET 0.00000 0.03937 0.00000
		CHANNELS 3 Xrotation Yrotation Zrotation
		JOINT Spine1
		{
			OFFSET 0.00000 8.01054 0.00000
			CHANNELS 3 Xrotation Yrotation Zrotation
			JOINT Neck
			{
				OFFSET 0.00000 8.21888 0.00000
				CHANNELS 3 Xrotation Yrotation Zrotation
				JOINT Head
				{
					OFFSET 0.00000 3.25664 0.00000
					CHANNELS 3 Xrotation Yrotation Zrotation
					End Site
					{
						OFFSET 0.00000 4.52755 0.00000
					}
				}
			}
			JOINT LeftShoulder
			{
				OFFSET 0.00000 8.21888 0.00000
				CHANNELS 3 Xrotation Yrotation Zrotation
				JOINT LeftArm
				{
					OFFSET 6.52904 -0.00002 0.00000
					CHANNELS 3 Xrotation Yrotation Zrotation
					JOINT LeftForeArm
					{
						OFFSET 10.44840 -0.00004 0.00000
						CHANNELS 3 Xrotation Yrotation Zrotation
						JOINT LeftHand
						{
							OFFSET 8.94727 -0.00003 0.00000
							CHANNELS 3 Xrotation Yrotation Zrotation
							JOINT LeftHandThumb
							{
								OFFSET 0.00000 0.00000 0.00000
								CHANNELS 3 Xrotation Yrotation Zrotation
								End Site
								{
									OFFSET 0.00000 0.00000 3.93700
								}
							}
							JOINT L_Wrist_End
							{
								OFFSET 3.93700 -0.00001 0.00000
								CHANNELS 3 Xrotation Yrotation Zrotation
							}
						}
					}
				}
			}
			JOINT RightShoulder
			{
				OFFSET 0.00000 8.21888 0.00000
				CHANNELS 3 Xrotation Yrotation Zrotation
				JOINT RightArm
				{
					OFFSET -6.52904 -0.00002 0.00000
					CHANNELS 3 Xrotation Yrotation Zrotation
					JOINT RightForeArm
					{
						OFFSET -10.44840 -0.00004 0.00000
						CHANNELS 3 Xrotation Yrotation Zrotation
						JOINT RightHand
						{
							OFFSET -8.94727 -0.00003 0.00000
							CHANNELS 3 Xrotation Yrotation Zrotation
							JOINT RightHandThumb
							{
								OFFSET 0.00000 0.00000 0.00000
								CHANNELS 3 Xrotation Yrotation Zrotation
								End Site
								{
									OFFSET 0.00000 0.00000 3.93700
								}
							}
							JOINT R_Wrist_End
							{
								OFFSET -5.39369 -0.00002 0.00000
								CHANNELS 3 Xrotation Yrotation Zrotation
							}
						}
					}
				}
			}
		}
	}
}
MOTION
Frames: 19
Frame Time: 0.008333
 90.6825 32.4893 -5.4183 171.2675 77.3403 -167.6892 11.6192 17.0934 -8.2101 12.2152 -0.0000 -0.0000 -5.3520 0.0883 -16.5811 8.0573 0.0000 0.0000 -28.9780 -31.5309 0.7675 15.4367 -0.0000 0.0000 18.0968 -18.7278 27.6578 20.7763 -0.0000 0.0000 -10.4175 -1.4768 -11.0982 12.9865 -9.9747 5.6823 -20.4664 4.7295 -2.5819 1.0377 -43.0486 0.3065 8.4264 11.6317 7.1327 -55.8592 -45.6241 -74.9846 -0.0001 -19.6724 -0.0000 -7.5098 -2.1179 -22.1846 0.0000 -0.0000 0.0000 0.0000 -0.0000 0.0000 16.4034 -27.9229 1.3895 -11.7379 -1.7800 63.2440 -0.0000 5.5792 0.0000 -8.3962 -7.7862 -8.9654 0.0000 -0.0000 0.0000 0.0000 -0.0000 0.0000
 91.0557 32.3877 -5.4308 171.0876 78.0040 -167.5993 11.6427 18.8754 -7.7369 14.1304 -0.0000 0.0000 -6.3584 -0.9762 -17.2089 7.8857 -0.0000 -0.0000 -27.7875 -33.0726 1.7950 15.1834 0.0000 -0.0000 16.2589 -18.1144 20.8968 20.4698 0.0000 0.0000 -10.5522 -1.3825 -10.8825 12.9171 -10.0247 5.3417 -20.1507 4.4420 -2.5434 0.9270 -43.2696 0.3628 8.3513 11.6250 7.3398 -55.6301 -44.9782 -74.3883 -0.0001 -19.8304 -0.0000 -7.2334 -1.9034 -22.1915 -0.0000 0.0000 0.0000 -0.0000 0.0000 0.0000 15.8980 -28.2426 1.2384 -11.9702 -3.1233 63.0591 -0.0000 5.7185 0.0000 -8.1520 -8.0165 -9.1195 0.0000 -0.0000 0.0000 0.0000 -0.0000 0.0000
 91.4098 32.2815 -5.4580 170.4014 78.5919 -166.8776 11.4036 20.6260 -7.3197 16.3405 0.0000 0.0000 -7.1729 -2.1113 -17.7338 7.7868 -0.0000 0.0000 -26.9857 -33.7248 2.5477 15.3158 -0.0000 0.0000 13.7918 -17.9366 17.1091 20.9085 0.0000 -0.0000 -10.6079 -1.4800 -10.8537 12.6303 -10.1735 5.2269 -20.0383 4.1925 -2.6589 1.1053 -43.3073 0.4541 8.5257 11.8908 7.2018 -55.5519 -44.3971 -73.8230 -0.0001 -19.9318 -0.0000 -7.0838 -1.7821 -22.1844 -0.0000 -0.0000 0.0000 -0.0000 -0.0000 0.0000 15.6253 -28.4549 1.0418 -12.3866 -3.9476 62.8149 -0.0000 5.7234 0.0000 -8.3582 -8.0262 -9.4124 0.0000 0.0000 0.0000 0.0000 0.0000 0.0000
 91.7573 32.1785 -5.4801 169.5861 79.2451 -166.0571 10.9735 22.6937 -6.6957 18.8611 0.0000 0.0000 -7.9692 -3.7179 -17.9886 7.6365 0.0000 -0.0000 -26.2693 -33.2020 3.2963 15.6027 -0.0000 0.0000 11.2397 -18.3923 14.8477 21.3056 -0.0000 0.0000 -10.6743 -1.5199 -10.7910 12.3871 -10.2707 5.1020 -19.6885 3.8963 -2.6930 0.8362 -43.4368 0.3695 8.6826 12.0351 7.1224 -55.3473 -43.7218 -73.2129 -0.0001 -20.0211 -0.0000 -6.9397 -1.7125 -22.1220 -0.0000 0.0000 0.0000 -0.0000 0.0000 0.0000 15.2922 -28.6167 0.8571 -12.7567 -4.8416 62.5791 -0.0000 5.7542 0.0000 -8.4589 -8.0246 -9.5911 -0.0000 0.0000 0.0000 -0.0000 0.0000 0.0000
 92.0959 32.0811 -5.4908 168.4579 79.8845 -165.0654 10.1779 24.7082 -5.7344 21.6953 -0.0000 0.0000 -8.4388 -5.4161 -18.2724 7.1345 0.0000 0.0000 -25.6632 -31.6210 4.1048 16.0266 -0.0000 -0.0000 8.8148 -19.2419 13.4898 21.7305 0.0000 0.0000 -10.7851 -1.5504 -10.6243 12.1901 -10.3861 4.9442 -19.1213 3.5559 -2.6315 0.2401 -43.6889 0.1820 8.6377 12.0634 7.3050 -54.9166 -42.7242 -72.7088 -0.0001 -20.0989 -0.0000 -6.7814 -1.7294 -22.0427 -0.0000 -0.0000 -0.0000 -0.0000 -0.0000 -0.0000 15.0796 -28.6608 0.8175 -13.1835 -5.7937 62.3317 -0.0000 5.8590 0.0000 -8.5209 -8.0818 -9.6373 0.0000 -0.0000 -0.0000 0.0000 -0.0000 -0.0000
 92.4259 31.9907 -5.4913 167.1674 80.5101 -164.0011 9.0264 26.5110 -4.4748 24.8345 0.0000 -0.0000 -8.4776 -7.1144 -18.6030 6.4101 0.0000 -0.0000 -25.1367 -29.5326 4.9619 16.4656 -0.0000 0.0000 6.6346 -20.3576 11.8438 21.5434 0.0000 -0.0000 -10.8419 -1.6186 -10.4781 11.9399 -10.4882 4.9388 -18.2743 3.1584 -2.5976 -0.6750 -43.9239 -0.0412 9.0133 12.1515 7.2612 -54.7430 -41.9113 -72.1268 -0.0001 -20.1647 -0.0000 -6.7611 -1.7344 -21.8660 0.0000 -0.0000 -0.0000 0.0000 -0.0000 -0.0000 14.9698 -28.6810 0.7668 -13.6451 -6.5963 62.1432 -0.0000 5.9287 0.0000 -8.5989 -8.0582 -9.8169 -0.0000 -0.0000 0.0000 -0.0000 -0.0000 0.0000
 92.7454 31.9119 -5.5093 166.0563 81.2057 -162.9269 7.8420 27.8932 -3.3966 28.1262 -0.0000 0.0000 -7.9454 -8.5134 -18.8183 5.5533 0.0000 0.0000 -24.7882 -27.1289 5.4713 17.1014 0.0000 -0.0000 4.3469 -21.3567 11.1849 22.0171 0.0000 -0.0000 -10.8559 -1.6787 -10.4496 11.7588 -10.5579 4.9367 -18.0563 3.0991 -2.1295 -1.3725 -44.4211 -1.0894 9.5224 12.3426 7.0832 -54.7350 -41.1411 -71.6393 -0.0001 -20.1630 -0.0000 -6.7728 -1.8087 -21.7647 -0.0000 0.0000 -0.0000 -0.0000 0.0000 -0.0000 14.9309 -28.7417 0.7647 -14.2459 -7.1194 61.9694 -0.0000 5.9105 0.0000 -8.6714 -8.0633 -9.9311 0.0000 0.0000 -0.0000 0.0000 0.0000 -0.0000
 93.0748 31.8466 -5.4770 164.8656 81.7246 -162.3734 5.8499 29.1211 -1.2254 31.8225 0.0000 -0.0000 -6.8599 -10.2127 -19.3484 4.4027 0.0000 0.0000 -23.9930 -25.0246 6.6185 17.3916 0.0000 -0.0000 2.3617 -22.1595 11.5462 22.9910 -0.0000 -0.0000 -10.9872 -1.8002 -10.2052 11.7556 -10.6498 5.2973 -17.4225 2.6713 -2.0383 -2.1297 -44.7932 -1.5611 9.4700 12.1063 7.4203 -53.8694 -39.6156 -71.1993 -0.0001 -20.5005 -0.0000 -6.6057 -1.7539 -21.4899 -0.0000 0.0000 -0.0000 -0.0000 0.0000 -0.0000 14.8823 -28.7522 0.6780 -14.6687 -7.7622 61.9535 -0.0000 6.0205 0.0000 -8.8288 -8.0440 -10.1078 0.0000 -0.0000 0.0000 0.0000 -0.0000 0.0000
 93.3911 31.7886 -5.4638 164.1245 82.3123 -162.0632 3.8014 29.8328 0.7347 35.6779 -0.0000 0.0000 -5.2941 -11.3464 -19.0414 3.6622 -0.0000 0.0000 -23.1425 -23.3300 7.5074 17.4816 -0.0000 0.0000 0.4330 -22.4337 10.9430 23.5427 -0.0000 -0.0000 -10.8313 -1.8681 -10.0113 11.4205 -10.6748 5.4671 -16.6962 2.5584 -1.1421 -3.9315 -45.6488 -3.5764 10.1459 12.1996 7.3735 -53.8976 -39.2346 -70.9374 -0.0001 -20.1504 -0.0000 -6.9272 -2.1588 -21.0569 0.0000 -0.0000 0.0000 0.0000 -0.0000 0.0000 15.0560 -28.8406 0.7848 -15.0645 -8.0944 61.8657 -0.0000 6.0409 0.0000 -9.0807 -8.0333 -10.0988 0.0000 -0.0000 0.0000 0.0000 -0.0000 0.0000
 93.7193 31.7459 -5.4512 163.4362 82.9712 -161.8120 1.7115 30.3933 2.8083 39.3764 -0.0000 0.0000 -2.3960 -12.7419 -19.6746 2.4061 -0.0000 0.0000 -22.1170 -21.7553 8.4024 17.3272 -0.0000 -0.0000 -1.2087 -22.5418 10.5349 23.7883 0.0000 -0.0000 -10.9508 -1.9494 -9.8395 11.5793 -10.7379 5.7436 -16.7157 1.9022 -1.4045 -3.4171 -45.8831 -3.3723 9.6521 12.0518 7.9142 -52.6476 -37.4637 -70.8760 -0.0001 -20.4811 -0.0000 -6.5061 -2.0230 -20.7913 0.0000 -0.0000 -0.0000 0.0000 -0.0000 -0.0000 15.0842 -28.8263 0.7945 -15.5401 -8.3548 61.8762 -0.0000 6.0524 0.0000 -9.2799 -7.8420 -10.1579 0.0000 0.0000 -0.0000 0.0000 0.0000 -0.0000
 94.0136 31.7111 -5.4649 161.9827 83.4948 -160.4710 -0.3099 30.0590 4.2310 42.9038 -0.0000 -0.0000 1.2757 -13.5309 -21.1438 2.0617 -0.0000 -0.0000 -21.3897 -20.4669 8.8601 17.1144 -0.0000 -0.0000 -2.8017 -22.4819 10.4145 23.8839 -0.0000 0.0000 -10.8535 -2.0714 -9.8255 11.5251 -10.7970 5.9590 -17.3845 1.2919 -1.4672 -2.9303 -46.2704 -3.8230 9.3801 12.2859 7.9690 -51.7939 -36.7683 -70.8346 -0.0001 -20.4852 -0.0000 -6.6635 -2.1710 -20.5707 0.0000 -0.0000 0.0000 0.0000 -0.0000 0.0000 14.7018 -29.1661 0.8558 -15.7536 -8.3363 61.6849 -0.0000 6.2089 0.0000 -9.1452 -7.7254 -9.5384 0.0000 0.0000 0.0000 0.0000 0.0000 0.0000
 94.3047 31.6824 -5.4370 160.0919 83.9663 -159.1329 -2.8352 29.6695 6.3438 46.5873 -0.0000 0.0000 4.9214 -14.3894 -22.1644 2.0125 -0.0000 -0.0000 -20.3780 -19.3260 9.9408 16.4257 -0.0000 0.0000 -3.7928 -22.8882 9.7547 24.0706 0.0000 0.0000 -10.7689 -2.2128 -9.6761 11.2967 -10.8578 6.3611 -17.8068 0.7568 -1.2483 -2.5344 -46.8506 -4.6899 9.2013 12.1647 8.3554 -50.6734 -35.6585 -70.8077 -0.0001 -20.4755 -0.0000 -6.7152 -2.3374 -20.4259 -0.0000 0.0000 0.0000 -0.0000 0.0000 0.0000 14.7142 -29.2889 0.9272 -15.9393 -8.1734 61.6540 -0.0000 6.2032 0.0000 -9.1979 -7.6246 -9.1888 -0.0000 -0.0000 -0.0000 -0.0000 -0.0000 -0.0000
 94.5683 31.6573 -5.3944 157.6446 84.3690 -157.2751 -5.5397 29.0570 8.4687 50.3093 0.0000 -0.0000 8.2532 -14.8779 -22.8220 4.5247 -0.0000 0.0000 -19.5120 -18.3565 11.0887 15.6914 -0.0000 0.0000 -4.3589 -23.5339 8.6715 23.7311 0.0000 -0.0000 -10.5620 -2.3506 -9.5884 10.9923 -10.8730 6.8473 -18.0155 -0.0950 -1.3278 -2.1237 -47.3658 -4.9432 8.8442 12.1079 8.7646 -49.6030 -34.9070 -70.9946 -0.0001 -20.2039 -0.0000 -6.8746 -2.5396 -20.4501 0.0000 0.0000 0.0000 0.0000 0.0000 0.0000 14.5206 -29.5022 1.0644 -15.9483 -7.9724 61.5144 -0.0000 6.2483 0.0000 -9.1486 -7.6297 -8.5349 0.0000 0.0000 -0.0000 0.0000 0.0000 -0.0000
 94.8099 31.6407 -5.3457 153.4358 84.7737 -153.7035 -8.3844 28.2598 10.5687 53.8445 -0.0000 0.0000 11.3631 -15.0677 -22.9188 7.0633 0.0000 0.0000 -18.9315 -17.1936 12.2869 15.0574 0.0000 0.0000 -4.6178 -24.4369 7.1970 23.1370 -0.0000 -0.0000 -10.4553 -2.4988 -9.5617 10.7558 -10.8826 7.4836 -18.3392 -0.7082 -1.0106 -2.2023 -48.1061 -6.0957 8.6201 12.0839 9.0709 -48.5257 -34.3279 -71.0652 -0.0001 -19.8822 -0.0000 -7.1624 -2.7003 -20.5013 -0.0000 0.0000 0.0000 -0.0000 0.0000 0.0000 14.4091 -29.5384 1.2421 -16.0245 -7.7657 61.3470 -0.0000 6.3749 0.0000 -9.0940 -7.8049 -7.8845 -0.0000 0.0000 -0.0000 -0.0000 0.0000 -0.0000
 95.0196 31.6326 -5.3013 147.5937 85.1466 -148.4248 -11.2303 27.2018 12.3895 57.2240 -0.0000 0.0000 14.1526 -14.8863 -22.6370 9.6572 -0.0000 -0.0000 -18.6849 -15.8599 13.3197 14.6854 0.0000 0.0000 -4.8566 -25.3424 6.3659 22.9838 -0.0000 -0.0000 -10.2684 -2.5964 -9.5708 10.3832 -10.8343 8.1016 -18.4747 -1.3289 -0.4945 -2.9405 -49.0680 -7.8050 8.9094 12.1519 9.0331 -47.9848 -34.1410 -71.0464 -0.0001 -19.4066 -0.0000 -7.4525 -2.7690 -20.7420 -0.0000 0.0000 -0.0000 -0.0000 0.0000 -0.0000 14.4241 -29.5993 1.5268 -16.1008 -7.4040 61.1967 -0.0000 6.4922 0.0000 -9.2105 -7.9100 -7.3829 -0.0000 0.0000 -0.0000 -0.0000 0.0000 -0.0000
 95.2114 31.6342 -5.2719 139.5392 85.5566 -140.8339 -13.9644 26.1535 13.9398 60.3969 0.0000 -0.0000 16.4099 -14.3290 -21.1796 13.5447 0.0000 -0.0000 -18.6138 -14.5468 14.1662 14.5285 0.0000 0.0000 -5.0469 -25.9639 5.7871 22.8256 0.0000 -0.0000 -10.5365 -2.5409 -9.6518 10.8043 -10.6935 8.7134 -18.0177 -2.0413 -0.0805 -4.6310 -50.0915 -9.2357 8.5476 12.0073 9.2179 -47.0118 -33.6997 -71.0002 -0.0001 -18.9841 -0.0000 -7.6270 -2.7650 -21.0089 0.0000 -0.0000 -0.0000 0.0000 -0.0000 -0.0000 14.2996 -29.3987 1.8517 -16.4308 -7.4801 61.1071 -0.0000 6.6110 0.0000 -9.1613 -7.9220 -6.8882 0.0000 -0.0000 0.0000 0.0000 -0.0000 0.0000
 95.3829 31.6399 -5.2809 130.1881 86.1122 -131.6096 -16.0525 24.8946 14.6817 63.1665 -0.0000 0.0000 18.1178 -13.6870 -19.7129 15.2240 -0.0000 0.0000 -18.4720 -13.5759 14.5625 14.6243 0.0000 0.0000 -5.3870 -25.9795 5.5402 22.8061 -0.0000 -0.0000 -10.1313 -2.5054 -9.6136 10.3607 -10.5739 8.8428 -17.5582 -2.6479 0.6214 -6.6132 -51.2480 -11.3440 8.8538 12.2224 8.9312 -46.2670 -34.2105 -70.7099 -0.0001 -18.4279 -0.0000 -8.2085 -2.8079 -21.1025 0.0000 -0.0000 -0.0000 0.0000 -0.0000 -0.0000 14.5819 -29.4074 2.4533 -16.7788 -6.7928 60.9195 -0.0000 6.5402 0.0000 -9.5117 -7.6911 -6.5750 -0.0000 -0.0000 0.0000 -0.0000 -0.0000 0.0000
 95.5653 31.6604 -5.3002 115.5307 86.7484 -116.9463 -17.8202 23.8540 15.2290 65.6642 -0.0000 0.0000 18.8822 -13.0894 -18.1623 15.2055 -0.0000 0.0000 -18.1040 -12.6940 14.8245 14.6515 -0.0000 0.0000 -5.5753 -25.5868 5.7810 22.5942 -0.0000 -0.0000 -10.0957 -2.3728 -9.6403 10.6234 -10.4057 8.9233 -17.4426 -3.7993 0.4306 -6.7757 -51.8919 -11.4032 9.0887 12.4240 8.6826 -45.3625 -34.2257 -70.2606 -0.0001 -18.2050 -0.0000 -8.2675 -2.6316 -21.4066 -0.0000 0.0000 -0.0000 -0.0000 0.0000 -0.0000 14.6598 -28.9858 2.8998 -17.1191 -6.6592 60.8610 -0.0000 6.8039 0.0000 -9.5899 -7.6302 -6.3854 0.0000 0.0000 -0.0000 0.0000 0.0000 -0.0000
 95.6764 31.6749 -5.2885 94.5011 86.5275 -96.3333 -20.4851 22.3420 16.1531 68.3060 -0.0000 0.0000 18.8952 -12.6161 -17.4202 14.8064 -0.0000 0.0000 -18.2814 -12.1809 15.5071 14.6517 0.0000 -0.0000 -5.4186 -25.0560 5.8268 22.6831 0.0000 -0.0000 -10.1964 -2.1959 -9.4192 10.5809 -10.2417 9.1407 -16.7544 -4.4282 1.1219 -9.2715 -53.1133 -13.3692 8.9074 12.3654 8.9020 -44.0848 -33.8164 -70.0467 -0.0001 -18.0732 -0.0000 -7.7909 -2.4374 -21.5252 0.0000 0.0000 0.0000 0.0000 0.0000 0.0000 14.9511 -28.9495 3.4406 -17.6264 -6.0326 61.0654 -0.0000 6.9340 0.0000 -9.8530 -7.2522 -6.4145 -0.0000 -0.0000 -0.0000 -0.0000 -0.0000 -0.0000
